<svg xmlns="http://www.w3.org/2000/svg" version="1.1" xmlns:xlink="http://www.w3.org/1999/xlink" width="1142" height="1142"><svg width="1142" height="1142" viewBox="0 0 1142 1142" fill="none" xmlns="http://www.w3.org/2000/svg">
<g filter="url(#filter0_d_2009_7)">
<path d="M555 0C861.518 0 1110 248.482 1110 555C1110 861.518 861.518 1110 555 1110C248.482 1110 0 861.518 0 555C0 248.482 248.482 0 555 0ZM555 110C309.233 110 110 309.233 110 555C110 800.767 309.233 1000 555 1000C800.767 1000 1000 800.767 1000 555C1000 309.233 800.767 110 555 110ZM555 197C585.376 197 610 221.624 610 252V521.283L776.9 606.323C803.965 620.113 814.726 653.233 800.937 680.298C787.146 707.363 754.026 718.124 726.961 704.334L531.438 604.71C528.232 603.188 525.197 601.364 522.368 599.276C522.294 599.222 522.22 599.167 522.146 599.112C522.112 599.087 522.078 599.062 522.044 599.036C513.944 592.997 507.874 584.988 504.169 576.04C504.128 575.941 504.086 575.843 504.046 575.744C503.913 575.419 503.785 575.092 503.659 574.765C503.546 574.47 503.434 574.176 503.325 573.879C503.292 573.787 503.26 573.695 503.227 573.604C503.142 573.367 503.058 573.13 502.977 572.893C500.781 566.518 499.75 559.747 500 552.927V252C500 221.624 524.624 197 555 197Z" fill="black"></path>
</g>
<defs>
<filter id="SvgjsFilter1306" x="0" y="0" width="1141.1" height="1141.1" filterUnits="userSpaceOnUse" color-interpolation-filters="sRGB">
<feFlood flood-opacity="0" result="BackgroundImageFix"></feFlood>
<feColorMatrix in="SourceAlpha" type="matrix" values="0 0 0 0 0 0 0 0 0 0 0 0 0 0 0 0 0 0 127 0" result="hardAlpha"></feColorMatrix>
<feOffset dx="30" dy="30"></feOffset>
<feGaussianBlur stdDeviation="0.55"></feGaussianBlur>
<feComposite in2="hardAlpha" operator="out"></feComposite>
<feColorMatrix type="matrix" values="0 0 0 0 0 0 0 0 0 0 0 0 0 0 0 0 0 0 0.25 0"></feColorMatrix>
<feBlend mode="normal" in2="BackgroundImageFix" result="effect1_dropShadow_2009_7"></feBlend>
<feBlend mode="normal" in="SourceGraphic" in2="effect1_dropShadow_2009_7" result="shape"></feBlend>
</filter>
</defs>
</svg><style>@media (prefers-color-scheme: light) { :root { filter: none; } }
@media (prefers-color-scheme: dark) { :root { filter: invert(100%); } }
</style></svg>